PathFileType  4	(X/Y/Z) C:\Users\antoi\Documents\MyRepositories\mobilecap\ResultsAnalysis
DataRate	CameraRate	NumFrames	NumMarkers	Units	OrigDataRate	OrigDataStartFrame	OrigNumFrames
100.0	100.0	4	51	mm	100.0	102	135
Frame#	Time	r_knee			r_shank_antsup			r_ankle			r_calc			r_5meta			r_toe			L_knee			L_shank_antsup			L_ankle			L_calc			L_5meta			L_toe			r_sh2			r_sh3			r_sh4			L_sh2			L_sh3			r_thigh1			r_thigh2			r_thigh3			r_thigh4			r_thigh5			L_thigh1			L_thigh2			L_thigh3			L_thigh4			r.ASIS			r.PSIS			L.ASIS			L.PSIS			C7			R_Shoulder			L_Shoulder			R_Sternum			L_Sternum			R_humerus			R_elbow_med			R_elbow_lat			R_forearm			R_wrist_radius			R_wrist_ulna			L_humerus			L_elbow_med			L_elbow_lat			L_forearm			L_wrist_radius			L_wrist_ulna			R_HJC			L_HJC			R_HJC_reg			L_HJC_reg			
		X1	Y1	Z1	X2	Y2	Z2	X3	Y3	Z3	X4	Y4	Z4	X5	Y5	Z5	X6	Y6	Z6	X7	Y7	Z7	X8	Y8	Z8	X9	Y9	Z9	X10	Y10	Z10	X11	Y11	Z11	X12	Y12	Z12	X13	Y13	Z13	X14	Y14	Z14	X15	Y15	Z15	X16	Y16	Z16	X17	Y17	Z17	X18	Y18	Z18	X19	Y19	Z19	X20	Y20	Z20	X21	Y21	Z21	X22	Y22	Z22	X23	Y23	Z23	X24	Y24	Z24	X25	Y25	Z25	X26	Y26	Z26	X27	Y27	Z27	X28	Y28	Z28	X29	Y29	Z29	X30	Y30	Z30	X31	Y31	Z31	X32	Y32	Z32	X33	Y33	Z33	X34	Y34	Z34	X35	Y35	Z35	X36	Y36	Z36	X37	Y37	Z37	X38	Y38	Z38	X39	Y39	Z39	X40	Y40	Z40	X41	Y41	Z41	X42	Y42	Z42	X43	Y43	Z43	X44	Y44	Z44	X45	Y45	Z45	X46	Y46	Z46	X47	Y47	Z47	X48	Y48	Z48	X49	Y49	Z49	X50	Y50	Z50	X51	Y51	Z51	

102	1.01000000	1251.92348	506.29590	-41.45388	1308.42279	457.88585	-54.06837	1357.22872	115.45481	-73.13311	1306.44388	64.20137	-116.72011	1474.88228	88.63027	-40.21787	1512.27790	138.12289	-88.82860	982.19332	489.57991	-305.19447	989.33997	390.89129	-307.39507	870.61817	102.37029	-254.98219	804.78239	66.56461	-201.01532	962.83584	40.96748	-309.71593	1014.46099	62.99144	-258.42263	1319.37150	342.55907	-36.39622	1228.15977	444.17008	-34.89739	1244.26976	332.03903	-39.11515	905.20341	420.55274	-302.89263	878.48234	301.23129	-299.28536	1184.86974	820.86945	-14.75020	1226.94273	714.51964	-20.42519	1126.47364	670.93034	-3.00089	1081.35164	778.48239	6.96169	1182.47686	674.14305	9.71396	1071.78721	741.45343	-369.23520	1052.22486	609.85592	-335.63827	965.05570	762.60697	-331.50849	950.00185	626.02202	-303.70818	1163.32934	957.52091	-62.23072	975.71600	1000.93979	-134.31999	1165.74550	932.94924	-310.48233	967.94280	1005.80834	-235.27499	977.91505	1401.55275	-230.34885	1064.02355	1378.64508	-41.15552	1080.21404	1370.95880	-397.89235	1116.01327	1381.85038	-195.85826	1124.59319	1381.82246	-236.93897	1061.89685	1247.05874	29.06883	1013.18772	1032.41771	-6.88834	1018.82950	1054.33170	62.30148	1097.43193	942.74132	100.87056	1144.38682	815.39380	122.64459	1114.17107	807.62161	139.87889	1136.75714	1267.83770	-454.25711	1197.02720	1035.35279	-404.30162	1214.69115	1068.67115	-476.32390	1325.36364	1038.24696	-461.26473	1457.82611	950.72564	-454.20721	1441.52271	930.87796	-479.45446	1082.42461	880.66601	-77.52476	1078.02009	869.15483	-283.62594	1096.36178	869.49882	-94.76322	1083.73612	877.40659	-258.74167	
103	1.02000000	1259.12754	502.79814	-42.76025	1318.07651	457.19041	-54.73852	1381.59663	116.42972	-72.28032	1333.37535	62.20212	-115.48697	1501.02564	95.12772	-39.36472	1535.61240	146.13909	-88.28579	988.89887	488.78025	-305.16295	994.64650	389.91233	-307.40776	871.51528	103.05787	-255.13003	805.11824	67.25205	-201.11993	962.94379	40.86337	-309.81896	1014.67222	62.68102	-258.64199	1333.23896	342.35910	-36.75694	1238.16648	440.55906	-36.51501	1258.52446	328.89806	-40.33437	910.90626	420.78029	-303.39010	882.46843	301.82522	-299.58660	1193.84361	816.56971	-13.46070	1234.33608	709.64819	-19.96051	1132.82780	667.32647	-4.56569	1089.21083	775.41101	6.04620	1188.90211	669.59098	9.07477	1081.85955	739.59540	-368.92124	1060.57548	608.30317	-335.21300	975.13147	762.03894	-331.90347	958.27508	625.63906	-304.08088	1174.59561	955.34346	-61.08494	986.97894	998.55887	-133.69591	1177.33659	930.66350	-309.42788	979.35107	1003.55710	-234.74529	989.16985	1399.31216	-229.96112	1075.32359	1376.49250	-40.58995	1092.32956	1368.80821	-397.31283	1127.71992	1379.67664	-195.23430	1136.38755	1379.57356	-236.30033	1072.87962	1244.89275	29.64568	1024.02157	1030.28272	-6.48237	1029.18832	1052.40641	62.69337	1106.19679	940.17179	102.40651	1151.37123	812.35723	125.09857	1120.84884	804.98905	142.06998	1149.99560	1266.48770	-453.66216	1214.01200	1035.05469	-404.05567	1231.55518	1069.04708	-475.89595	1342.92405	1041.93517	-459.50616	1478.11094	958.86682	-451.04787	1462.70473	938.63216	-476.82275	1093.63865	878.43922	-76.62335	1089.64453	866.84936	-282.72921	1107.75602	866.99531	-93.84069	1095.37268	875.11051	-257.89699	
104	1.03000000	1267.17882	499.78793	-44.03167	1328.03727	456.31320	-55.62890	1402.48872	117.21715	-71.42869	1356.41979	60.55837	-114.24700	1523.15377	100.44884	-38.41717	1555.45967	152.41765	-87.70226	996.17620	487.90236	-305.09648	1000.46215	388.85770	-307.39562	872.54566	103.91085	-255.32474	805.54713	68.23908	-201.27943	963.08013	40.75429	-309.92047	1014.96808	62.33920	-258.91023	1346.38828	342.01103	-37.21541	1248.48506	437.47666	-37.98717	1272.05449	326.31303	-41.27817	917.14777	421.04454	-303.88655	886.85970	302.48924	-299.88750	1202.87590	812.59204	-11.94254	1242.11807	705.26012	-19.31337	1139.73780	663.83127	-6.32592	1097.27368	772.41788	5.04643	1195.77962	665.37523	8.48461	1092.19644	737.70710	-368.56715	1069.37187	606.71806	-334.73780	985.50325	761.35090	-332.12661	967.02106	625.12061	-304.25927	1186.00186	953.17983	-59.93202	998.35426	996.24289	-133.01011	1188.95583	928.39521	-308.43139	990.85696	1001.33613	-234.13087	1000.63223	1397.08256	-229.40893	1086.80708	1374.33319	-39.87402	1104.49651	1366.59583	-396.65750	1139.56753	1377.53458	-194.48303	1148.28121	1377.36195	-235.55360	1084.09125	1242.70214	30.32312	1035.13615	1028.09201	-5.99010	1039.85996	1050.43585	63.16566	1115.29563	937.57731	103.93195	1158.69266	809.32679	127.46825	1127.86991	802.36452	144.20373	1163.23144	1265.02197	-453.00192	1230.64726	1034.62903	-403.55446	1247.98444	1069.20918	-475.21312	1359.97670	1045.27905	-457.63371	1497.58698	966.53512	-447.83557	1483.04474	946.00285	-474.06208	1104.98017	876.24157	-75.70505	1101.30059	864.57374	-281.81294	1119.22232	864.54640	-92.88329	1107.05082	872.81635	-257.05969	
105	1.04000000	1276.26970	497.29527	-45.12867	1338.42381	455.15892	-56.64828	1419.70255	117.38124	-70.74518	1375.25888	58.96607	-113.20574	1541.11222	103.94825	-37.55093	1571.82151	156.37284	-87.20297	1003.98918	486.96770	-304.97967	1006.75219	387.74483	-307.36537	873.70714	104.97787	-255.59013	806.08127	69.59488	-201.50266	963.25499	40.64518	-310.02456	1015.36026	61.96583	-259.22129	1358.85605	341.31342	-37.74824	1259.15441	434.86984	-39.16569	1284.82478	324.16568	-41.86374	923.90619	421.35655	-304.33562	891.63263	303.25325	-300.16661	1212.19715	809.16081	-10.30970	1250.60201	701.59301	-18.55840	1147.53177	660.62435	-8.07172	1105.83695	769.63310	4.08635	1203.49647	661.71833	7.98060	1102.77034	735.81762	-368.17778	1078.57650	605.11884	-334.23538	996.15497	760.56966	-332.14105	976.23745	624.48442	-304.20752	1197.54386	951.00941	-58.80605	1009.86261	994.06825	-132.26810	1200.63610	926.17811	-307.50481	1002.48305	999.21074	-233.44115	1012.31619	1394.92295	-228.70561	1098.46890	1372.21325	-39.01424	1116.73762	1364.38052	-395.91083	1151.53373	1375.46737	-193.60588	1160.27882	1375.24104	-234.69388	1095.52490	1240.53308	31.09803	1046.53134	1025.90032	-5.42698	1050.84921	1048.45535	63.71407	1124.72894	935.00091	105.43074	1166.35219	806.33859	129.74271	1135.25473	799.79714	146.26258	1176.48086	1263.49812	-452.28276	1246.89120	1034.08865	-402.80976	1263.98194	1069.18173	-474.29042	1376.50358	1048.26871	-455.66188	1516.25514	973.68668	-444.58922	1502.53520	952.93434	-471.11482	1116.43130	874.08643	-74.80221	1112.98020	862.38269	-280.91240	1130.72953	862.22177	-91.91049	1118.74460	870.57478	-256.23282	
